<svg xmlns="http://www.w3.org/2000/svg" viewBox="0 0 278.98 602.23">
  <path d="M279,572.55a29.67,29.67,0,0,1-29.63,29.68H29.63A29.66,29.66,0,0,1,0,572.56V29.67A29.63,29.63,0,0,1,29.63,0H58a4.08,4.08,0,0,1,3.88,3.91V6.44a15.3,15.3,0,0,0,1.17,5.93,15.53,15.53,0,0,0,3.36,5,15.38,15.38,0,0,0,5,3.36A15.5,15.5,0,0,0,77.4,22H201.34a15.5,15.5,0,0,0,5.93-1.19,15.38,15.38,0,0,0,5-3.36,15.53,15.53,0,0,0,3.36-5,15.3,15.3,0,0,0,1.17-5.93V4.06h0A4.05,4.05,0,0,1,220.73,0h28.62A29.65,29.65,0,0,1,279,29.67Z"/>
</svg>
