<?xml version="1.0" standalone="no"?>
<!DOCTYPE svg PUBLIC "-//W3C//DTD SVG 20010904//EN"
 "http://www.w3.org/TR/2001/REC-SVG-20010904/DTD/svg10.dtd">
<svg version="1.0" xmlns="http://www.w3.org/2000/svg"
 width="698.000000pt" height="698.000000pt" viewBox="0 0 698.000000 698.000000"
 preserveAspectRatio="xMidYMid meet">
<metadata>
Created by potrace 1.11, written by Peter Selinger 2001-2013
</metadata>
<g transform="translate(0.000000,698.000000) scale(0.100000,-0.100000)"
fill="#000000" stroke="none">
<path d="M1 4502 l1 -1208 85 -49 c47 -28 97 -57 112 -65 46 -27 145 -85 166
-97 11 -7 27 -15 35 -19 8 -4 48 -27 88 -51 41 -24 78 -43 83 -43 5 0 9 -4 9
-10 0 -5 4 -10 10 -10 5 0 31 -13 59 -29 l49 -29 -1 804 c-1 442 -1 804 1 804
4 0 72 -37 92 -50 33 -21 222 -130 226 -130 2 0 28 -16 59 -35 30 -20 63 -39
73 -42 9 -4 34 -17 55 -30 21 -13 53 -32 70 -42 123 -71 516 -299 585 -340 29
-17 54 -31 56 -31 2 0 41 -22 87 -50 46 -27 87 -50 92 -50 6 0 282 156 337
191 12 7 258 149 425 244 22 12 108 62 190 110 83 48 168 97 190 110 22 12 87
50 145 84 l105 61 3 -387 c3 -387 1 -433 -19 -433 -5 0 -105 -56 -222 -123
-117 -68 -232 -135 -257 -149 -59 -33 -341 -195 -360 -208 -18 -11 -283 -164
-357 -205 -29 -16 -81 -47 -116 -68 l-63 -38 0 -402 1 -401 100 -57 c55 -32
105 -62 111 -66 5 -4 28 -17 50 -29 21 -11 95 -53 164 -93 149 -88 177 -103
255 -148 33 -19 67 -38 75 -43 60 -37 173 -100 181 -100 5 0 9 -4 9 -10 0 -5
5 -10 10 -10 6 0 76 -38 156 -85 80 -47 149 -85 154 -85 6 0 10 -4 10 -10 0
-5 6 -10 13 -10 6 0 32 -13 56 -30 l45 -29 60 33 c34 18 84 46 112 63 27 17
70 41 95 55 70 40 622 359 748 432 62 36 117 66 121 66 4 0 18 8 31 19 13 10
51 33 84 51 33 18 80 44 105 59 l45 27 180 -104 c99 -57 281 -162 405 -234
124 -71 232 -133 240 -138 8 -5 71 -41 140 -81 69 -39 139 -80 155 -90 17 -10
44 -25 60 -34 17 -8 37 -19 45 -25 8 -5 49 -29 92 -54 68 -39 79 -43 100 -32
13 7 85 48 159 91 74 43 148 86 164 95 79 45 141 81 155 90 8 6 24 14 35 20
11 5 43 23 70 40 28 17 59 35 71 41 l21 11 1 1596 c0 879 -2 1605 -4 1614 -4
14 -49 43 -249 158 -16 9 -103 59 -192 111 -90 52 -180 103 -200 115 -21 12
-83 47 -138 79 -55 32 -117 68 -137 79 -20 12 -114 66 -209 121 -95 55 -193
112 -219 126 -42 23 -67 26 -80 10 -3 -4 -16 -12 -30 -19 -14 -6 -32 -16 -40
-22 -13 -8 -181 -105 -295 -170 -16 -10 -81 -47 -144 -84 -62 -36 -117 -66
-122 -66 -34 0 -34 -16 -34 -1238 l1 -1201 -191 -109 c-104 -61 -305 -176
-445 -257 -140 -81 -280 -161 -310 -178 -30 -16 -67 -38 -82 -49 -14 -10 -29
-18 -33 -18 -3 0 -31 -16 -61 -35 -30 -19 -57 -35 -60 -35 -3 0 -30 -16 -60
-35 -30 -19 -57 -35 -61 -35 -3 0 -27 -13 -54 -30 -27 -16 -51 -25 -54 -21 -4
8 -76 51 -195 118 -19 11 -58 34 -86 51 -28 18 -54 32 -57 32 -3 0 -72 40
-154 88 -81 48 -156 91 -166 95 -25 10 -21 21 16 40 17 9 55 29 82 45 28 16
106 62 175 102 69 40 143 84 165 97 22 13 52 29 68 36 15 6 27 15 27 19 0 4 4
8 9 8 5 0 54 26 108 58 54 32 105 61 113 65 8 4 29 15 45 26 17 10 46 27 65
38 19 11 59 34 88 52 29 17 55 31 58 31 3 0 18 8 32 19 15 10 50 31 77 45 28
15 68 38 90 52 22 13 65 38 96 55 l56 32 0 1207 0 1208 -31 -18 c-17 -10 -193
-111 -391 -224 -198 -114 -367 -211 -375 -216 -8 -5 -49 -28 -90 -52 -41 -23
-77 -45 -78 -50 -2 -4 -8 -8 -12 -8 -8 0 -94 -49 -355 -200 -71 -41 -494 -284
-530 -305 -22 -13 -80 -46 -128 -74 -49 -28 -94 -51 -101 -51 -11 0 -149 74
-206 110 -31 20 -432 250 -435 250 -2 0 -56 32 -121 70 -64 39 -119 70 -121
70 -2 0 -29 16 -59 35 -30 19 -58 35 -62 35 -4 0 -23 11 -42 23 -19 13 -60 37
-90 54 -53 29 -289 164 -320 183 -64 39 -121 70 -130 70 -5 0 -10 3 -10 8 0 4
-10 12 -23 18 -12 6 -105 59 -206 117 -102 59 -186 107 -188 107 -2 0 -21 11
-43 25 l-39 24 0 -1207z m5639 368 c14 -9 88 -52 165 -95 77 -43 142 -81 145
-84 3 -3 14 -11 25 -17 11 -6 43 -23 70 -39 28 -15 75 -41 105 -58 30 -16 62
-35 70 -42 8 -7 25 -16 38 -19 l22 -7 0 -397 0 -397 -43 -24 c-23 -13 -172
-98 -330 -189 -260 -150 -287 -168 -270 -180 10 -7 50 -31 88 -53 39 -22 77
-44 85 -49 21 -13 265 -155 378 -219 l92 -53 0 -429 c0 -236 -2 -429 -4 -429
-3 0 -155 88 -274 159 -29 17 -55 31 -57 31 -3 0 -29 16 -59 35 -30 19 -57 35
-59 35 -3 0 -58 31 -123 69 l-119 69 -1 1205 c-1 1096 1 1205 15 1199 9 -3 27
-13 41 -22z"/>
</g>
</svg>
