<?xml version="1.0" standalone="no"?>
<!DOCTYPE svg PUBLIC "-//W3C//DTD SVG 20010904//EN"
 "http://www.w3.org/TR/2001/REC-SVG-20010904/DTD/svg10.dtd">
<svg version="1.0" xmlns="http://www.w3.org/2000/svg"
 width="700.000000pt" height="700.000000pt" viewBox="0 0 700.000000 700.000000"
 preserveAspectRatio="xMidYMid meet">
<metadata>
Created by potrace 1.14, written by Peter Selinger 2001-2017
</metadata>
<g transform="translate(0.000000,700.000000) scale(0.100000,-0.100000)"
fill="#000000" stroke="none">
<path d="M1865 6989 c-22 -4 -51 -10 -65 -12 -58 -11 -179 -60 -245 -99 -185
-110 -267 -262 -231 -428 42 -189 246 -406 471 -499 134 -56 233 -59 331 -11
284 140 454 598 311 840 -52 89 -156 164 -272 195 -66 18 -237 26 -300 14z"/>
<path d="M4029 6716 c-2 -2 -28 -7 -58 -11 -71 -9 -185 -47 -269 -89 -148 -74
-257 -177 -460 -431 -128 -160 -214 -258 -272 -311 -62 -57 -80 -70 -150 -116
-107 -69 -353 -160 -499 -184 -14 -3 -48 -9 -76 -14 -27 -5 -68 -12 -90 -15
-22 -3 -51 -7 -65 -10 -14 -2 -56 -6 -95 -10 -38 -3 -81 -8 -95 -10 -14 -2
-52 -7 -85 -10 -442 -44 -648 -90 -838 -189 -95 -49 -217 -144 -278 -217 -41
-47 -202 -270 -236 -324 -7 -11 -47 -74 -88 -140 -78 -123 -175 -306 -215
-405 -12 -30 -28 -68 -35 -85 -30 -71 -82 -263 -91 -338 -3 -23 -7 -48 -10
-56 -18 -55 -26 -407 -12 -546 51 -504 282 -1003 614 -1327 131 -128 263 -221
400 -284 341 -155 544 -34 687 411 57 177 81 308 124 680 4 39 8 439 8 890 0
451 4 843 9 870 17 104 83 211 170 273 61 45 83 56 160 82 85 29 252 23 355
-13 153 -54 265 -156 346 -316 43 -86 125 -303 281 -741 79 -223 148 -414 153
-425 5 -11 28 -69 51 -130 85 -225 189 -382 269 -406 32 -9 44 -8 75 6 77 37
170 202 279 495 35 96 79 213 96 260 18 47 68 184 112 305 44 121 84 229 89
240 5 11 32 81 60 155 81 215 150 348 223 423 107 111 203 147 407 153 307 9
428 -70 475 -311 31 -153 39 -256 38 -465 0 -91 -1 -622 -2 -1180 -2 -564 -7
-1041 -12 -1072 -21 -131 -85 -230 -179 -278 -122 -62 -260 -7 -330 130 -61
122 -63 140 -66 555 -1 209 -5 416 -8 460 -4 44 -9 111 -11 150 -3 38 -7 81
-10 95 -3 14 -7 41 -9 60 -7 57 -33 162 -50 200 -21 47 -37 66 -62 74 -40 13
-58 -16 -237 -394 -19 -41 -64 -136 -100 -211 -36 -76 -80 -168 -98 -205 -72
-157 -116 -248 -195 -411 -46 -95 -84 -175 -84 -177 0 -2 -23 -45 -52 -96 -61
-111 -154 -210 -224 -242 -95 -42 -203 -22 -290 54 -114 100 -217 328 -348
768 -250 836 -465 1300 -604 1300 -18 0 -28 -10 -42 -42 -34 -78 -39 -151 -39
-513 0 -355 9 -550 39 -890 15 -161 57 -492 65 -505 2 -3 6 -27 9 -54 4 -27 9
-52 11 -55 1 -3 6 -23 9 -44 26 -165 112 -451 185 -616 101 -228 206 -353 466
-549 58 -44 210 -128 325 -180 67 -30 234 -87 282 -96 15 -2 31 -7 36 -10 4
-3 30 -7 56 -11 27 -3 51 -7 55 -9 28 -17 339 -27 462 -15 706 68 1381 499
1938 1236 64 86 201 281 201 288 0 2 13 23 29 47 140 210 284 599 337 913 2
11 6 31 8 45 2 14 7 48 11 75 3 28 8 60 10 73 26 154 27 699 1 862 -3 14 -7
50 -11 80 -4 30 -8 64 -10 75 -7 50 -16 103 -20 125 -3 14 -8 41 -11 60 -10
60 -54 241 -85 350 -95 329 -235 651 -420 959 -76 129 -256 380 -336 472 -98
113 -138 155 -227 244 -399 397 -880 680 -1276 750 -19 4 -71 13 -115 22 -73
14 -425 29 -436 19z"/>
</g>
</svg>
