<svg xmlns="http://www.w3.org/2000/svg" viewBox="0 0 302.32 272.22"><g style="isolation:isolate"><g id="Layer_2" data-name="Layer 2"><g id="OBJECT"><ellipse cx="148.63" cy="261.04" rx="135.49" ry="11.18" style="fill:#b3b3b3;opacity:0.4;mix-blend-mode:multiply"/><polygon points="188.58 254.02 113.74 254.02 117.97 184.89 183.5 184.89 188.58 254.02" style="fill:#b3b3b3"/><rect width="302.32" height="193.33" rx="10.83" style="fill:#343436"/><rect x="69.73" y="-43.09" width="162.85" height="273.27" transform="translate(244.7 -57.61) rotate(90)" style="fill:#fff"/><rect x="95.22" y="243.71" width="111.87" height="18.09" rx="3.26" style="fill:#343436"/><circle cx="151.16" cy="184.24" r="5.05" style="fill:#b3b3b3"/><g id="Desktop"><rect x="57.27" y="30.94" width="48.44" height="135.78" rx="3.24" style="fill:#f5f5f5"/><rect x="14.52" y="23.08" width="32.72" height="151.89" style="fill:#f5f5f5"/><rect id="Appbar" x="14.52" y="12.12" width="273.27" height="10.97" style="fill:#7263fb"/><rect x="112.54" y="45.97" width="164.48" height="120.75" rx="3.38" style="fill:#f5f5f5"/><rect x="64.46" y="38.54" width="34.06" height="6.61" rx="0.97" style="fill:#7263fb"/><rect x="64.46" y="49.14" width="34.06" height="6.61" rx="0.97" style="fill:#fff"/><rect x="64.46" y="59.76" width="34.06" height="6.61" rx="0.97" style="fill:#fff"/><rect x="64.46" y="70.16" width="34.06" height="6.61" rx="0.97" style="fill:#fff"/><rect x="112.54" y="30.94" width="164.48" height="7.84" rx="2.41" style="fill:#f5f5f5"/></g><line x1="121.44" y1="155.8" x2="152.16" y2="128.61" style="fill:none;stroke:#1de9b6;stroke-miterlimit:10"/><line x1="151.74" y1="128.72" x2="172.01" y2="132.67" style="fill:none;stroke:#1de9b6;stroke-miterlimit:10"/><line x1="171.71" y1="132.75" x2="196.08" y2="122.5" style="fill:none;stroke:#1de9b6;stroke-miterlimit:10"/><line x1="196.14" y1="122.5" x2="223.22" y2="116.47" style="fill:none;stroke:#1de9b6;stroke-miterlimit:10"/><line x1="248.52" y1="104.99" x2="223.09" y2="116.5" style="fill:none;stroke:#1de9b6;stroke-miterlimit:10"/><line x1="263.55" y1="86.08" x2="248.36" y2="105.13" style="fill:none;stroke:#1de9b6;stroke-miterlimit:10"/><line x1="151.16" y1="118.37" x2="121.07" y2="109.77" style="fill:none;stroke:#008ffb;stroke-miterlimit:10"/><line x1="185.19" y1="107.96" x2="150.86" y2="118.35" style="fill:none;stroke:#008ffb;stroke-miterlimit:10"/><line x1="220.36" y1="120.51" x2="184.81" y2="107.96" style="fill:none;stroke:#008ffb;stroke-miterlimit:10"/><line x1="260.39" y1="116.96" x2="220.11" y2="120.42" style="fill:none;stroke:#008ffb;stroke-miterlimit:10"/><rect x="115.3" y="33.17" width="10.94" height="3.39" rx="1.03" style="fill:#ff458a"/><rect x="128.81" y="33.17" width="10.94" height="3.39" rx="1.03" style="fill:#7263fb"/><circle cx="272.87" cy="34.86" r="1.65" style="fill:#fff"/></g></g></g></svg>